<svg width="96" height="96" viewBox="0 0 96 96" fill="none" xmlns="http://www.w3.org/2000/svg">
<rect x="0.5" y="0.5" width="95" height="95" rx="7.5" fill="white"/>
<path d="M80 48C80 41.671 78.1232 35.4841 74.607 30.2218C71.0908 24.9594 66.0931 20.8579 60.2459 18.4359C54.3986 16.0139 47.9645 15.3801 41.7571 16.6149C35.5497 17.8496 29.8479 20.8973 25.3726 25.3726C20.8973 29.8479 17.8496 35.5497 16.6149 41.7571C15.3801 47.9645 16.0139 54.3986 18.4359 60.2459C20.8579 66.0931 24.9594 71.0908 30.2218 74.607C35.4841 78.1232 41.671 80 48 80V64C44.8355 64 41.7421 63.0616 39.1109 61.3035C36.4797 59.5454 34.4289 57.0466 33.2179 54.1229C32.0069 51.1993 31.6901 47.9823 32.3074 44.8786C32.9248 41.7749 34.4487 38.9239 36.6863 36.6863C38.9239 34.4487 41.7749 32.9248 44.8786 32.3074C47.9823 31.6901 51.1993 32.0069 54.1229 33.2179C57.0466 34.4289 59.5454 36.4797 61.3035 39.1109C63.0616 41.7421 64 44.8355 64 48H80Z" fill="#FAAE38"/>
<rect x="48" y="48" width="16" height="16" fill="#FAAE38"/>
<rect x="0.5" y="0.5" width="95" height="95" rx="7.5" stroke="#EBEBEB"/>
</svg>
