<svg width="38px" height="38px" viewBox="-9 -9 56 56" fill="none" xmlns="http://www.w3.org/2000/svg">
<path d="M37.6667 19.0026C37.6667 15.3107 36.5719 11.7017 34.5208 8.63196C32.4697 5.56224 29.5544 3.16969 26.1435 1.75685C22.7326 0.344017 18.9793 -0.0256452 15.3584 0.694612C11.7374 1.41487 8.41129 3.1927 5.80071 5.80328C3.19013 8.41386 1.41231 11.7399 0.692049 15.3609C-0.0282087 18.9819 0.341454 22.7351 1.75429 26.146C3.16713 29.5569 5.55968 32.4722 8.6294 34.5234C11.6991 36.5745 15.3081 37.6693 19 37.6693L19 28.3359C17.1541 28.3359 15.3496 27.7885 13.8147 26.763C12.2799 25.7374 11.0836 24.2798 10.3772 22.5743C9.67075 20.8689 9.48592 18.9922 9.84604 17.1818C10.2062 15.3713 11.0951 13.7082 12.4004 12.4029C13.7057 11.0977 15.3687 10.2087 17.1792 9.84861C18.9897 9.48848 20.8663 9.67331 22.5718 10.3797C24.2772 11.0861 25.7349 12.2824 26.7604 13.8173C27.786 15.3521 28.3334 17.1566 28.3334 19.0026H37.6667Z" fill="#FAAE38"/>
<rect x="19" y="19" width="9.33333" height="9.33333" fill="#FAAE38"/>
</svg>
