<svg width="40" height="40" viewBox="0 0 40 40" fill="none" xmlns="http://www.w3.org/2000/svg">
<g clip-path="url(#clip0_5847_38634)">
<path d="M19.9996 39.9997C16.044 39.9997 12.1773 38.8267 8.88835 36.6291C5.59944 34.4314 3.03607 31.3079 1.52239 27.6534C0.00871564 23.9989 -0.387276 19.9776 0.384493 16.098C1.15626 12.2185 3.06113 8.65492 5.8582 5.85797C7.7131 3.9907 9.91832 2.50792 12.3474 1.49465C14.7765 0.481372 17.3818 -0.0424714 20.0137 -0.0468474C22.6457 -0.0512233 25.2527 0.463954 27.6851 1.46915C30.1176 2.47434 32.3278 3.94978 34.1888 5.81087C36.0499 7.67196 37.5254 9.8821 38.5306 12.3146C39.5358 14.747 40.0509 17.354 40.0466 19.986C40.0422 22.6179 39.5183 25.2232 38.5051 27.6523C37.4918 30.0814 36.009 32.2866 34.1417 34.1415C32.289 36.0047 30.0851 37.4818 27.6575 38.4874C25.23 39.493 22.6271 40.007 19.9996 39.9997ZM19.9996 1.4641C9.77748 1.4641 1.46433 9.77887 1.46433 19.9993C1.46433 30.2198 9.7791 38.5354 19.9996 38.5354C30.22 38.5354 38.5356 30.2206 38.5356 19.9993C38.5356 9.77806 30.2208 1.4641 19.9996 1.4641Z" fill="#FFF"/>
<path d="M26.063 19.0929C26.1058 19.467 26.1272 19.8433 26.1271 20.2198C26.1271 21.5941 25.8697 22.8016 25.3548 23.8422C24.8399 24.8828 24.1249 25.6829 23.2098 26.2427C22.2946 26.802 21.2375 27.0816 20.0385 27.0816C18.8394 27.0816 17.7764 26.802 16.8494 26.2427C15.9245 25.6829 15.2049 24.8828 14.6905 23.8422C14.1762 22.8016 13.9188 21.5941 13.9182 20.2198C13.9182 18.8455 14.1757 17.6429 14.6905 16.6121C15.2054 15.5812 15.925 14.791 16.8494 14.2415C17.7742 13.6925 18.8373 13.4178 20.0385 13.4173C21.2397 13.4167 22.2976 13.6915 23.2122 14.2415C23.9934 14.7131 24.6449 15.3716 25.1082 16.1577L25.1171 16.1732C25.1558 16.1676 25.1948 16.1646 25.2339 16.1642H29.5264C29.3472 15.6999 29.1343 15.2492 28.8895 14.8159C28.0208 13.2542 26.7459 11.9566 25.1998 11.0605C23.6449 10.1584 21.9244 9.70701 20.0385 9.70647C18.2325 9.69009 16.4551 10.1576 14.8909 11.0605C13.3363 11.955 12.0517 13.2524 11.1729 14.8159C10.2577 16.4163 9.80017 18.2176 9.80017 20.2198C9.80017 22.2426 10.2577 24.0544 11.1729 25.6554C12.0515 27.2188 13.3361 28.516 14.8909 29.41C16.4612 30.298 18.2345 30.7647 20.0385 30.7647C21.8425 30.7647 23.6158 30.298 25.186 29.41C26.7382 28.5175 28.0184 27.2196 28.8895 25.6554C29.7944 24.055 30.247 22.2431 30.2476 20.2198C30.2476 19.8369 30.2297 19.4613 30.1965 19.0929H26.063Z" fill="#FFF"/>
<path d="M27.8341 19.0928H19.8025V22.2908H27.8341V19.0928Z" fill="#FFF"/>
<path d="M30.2898 29.2055C30.2898 28.3424 30.8731 27.7363 31.6901 27.7363C32.507 27.7363 33.0692 28.3424 33.0692 29.2055C33.0692 30.046 32.5322 30.6756 31.669 30.6756C30.8496 30.6764 30.2898 30.0468 30.2898 29.2055Z" fill="#FFF"/>
</g>
<defs>
<clipPath id="clip0_5847_38634">
<rect width="40" height="40" fill="white"/>
</clipPath>
</defs>
</svg>
