<svg width="48" height="48" viewBox="0 0 48 48" fill="none" xmlns="http://www.w3.org/2000/svg">
  <path d="M0 6C0 2.68629 2.68629 0 6 0H42C45.3137 0 48 2.68629 48 6V42C48 45.3137 45.3137 48 42 48H6C2.68629 48 0 45.3137 0 42V6Z" fill="#fff"/>
  <path fill-rule="evenodd" clip-rule="evenodd" d="M24.0014 21.6895L31.4854 17.3686L31.4849 17.3681L36.7463 14.3304C37.1449 14.8572 37.5153 15.4145 37.8541 16.0013C42.2716 23.6527 39.6501 33.4366 31.9987 37.8541C24.3473 42.2716 14.5634 39.6501 10.1459 31.9987C5.72837 24.3473 8.34993 14.5634 16.0013 10.1459C21.8151 6.78934 28.86 7.49671 33.8464 11.3866L27.9267 14.8044C25.133 13.614 21.8332 13.7059 19.0008 15.3412C14.2187 18.1022 12.5802 24.217 15.3412 28.9992C18.1022 33.7813 24.217 35.4198 28.9992 32.6588C32.8765 30.4202 34.6872 25.9769 33.762 21.8267L24.0014 27.462V21.6895Z" fill="#303030"/>
  <circle cx="40" cy="38" r="2" fill="#303030"/>
</svg>
