<svg width="21" height="21" viewBox="0 0 21 21" fill="none" xmlns="http://www.w3.org/2000/svg">
<path d="M20.9487 1.54763L18.2324 15.9738C18.0275 16.992 17.493 17.2454 16.7336 16.7657L12.5948 13.3311L10.5978 15.4941C10.3768 15.743 10.1919 15.9512 9.76602 15.9512L10.0634 11.2043L17.7341 3.39841C18.0677 3.06355 17.6618 2.87802 17.2158 3.21288L7.7328 9.93726L3.65029 8.49826C2.76227 8.18602 2.7462 7.4982 3.83513 7.01853L19.8035 0.09053C20.5429 -0.221705 21.1898 0.276061 20.9487 1.54763Z" fill="#303030"/>
<mask id="path-2-outside-1_6152_7062" maskUnits="userSpaceOnUse" x="0" y="9" width="16" height="13" fill="black">
<rect fill="white" y="9" width="16" height="13"/>
<path fill-rule="evenodd" clip-rule="evenodd" d="M9.82143 17.6071V10.8868C9.82143 10.1264 8.88179 9.71995 8.28139 10.2207L6.10714 12.0342H2.39286C1.6236 12.0342 1 12.6286 1 13.3619V15.1321C1 15.8654 1.6236 16.4598 2.39286 16.4598H6.10714L8.28139 18.2732C8.88179 18.774 9.82143 18.3676 9.82143 17.6071ZM12.5397 15.8069C12.2971 16.1252 11.9847 16.3864 11.6266 16.5738C11.6093 16.5828 11.5919 16.5917 11.5744 16.6004L11.5726 16.6013C11.5562 16.6096 11.5402 16.6185 11.5248 16.6281C11.508 16.6385 11.4918 16.6497 11.4764 16.6616C11.3103 16.789 11.2233 16.9958 11.2903 17.1925C11.3695 17.4249 11.6332 17.5546 11.8652 17.4507C11.912 17.4297 11.9582 17.4079 12.0039 17.3852C12.5104 17.1333 12.9518 16.7721 13.2909 16.3272C13.752 15.7223 14.0003 14.9938 14.0003 14.2461C14.0003 13.4985 13.752 12.77 13.2909 12.1651C12.9518 11.7202 12.5104 11.359 12.0039 11.1071C11.9582 11.0844 11.912 11.0625 11.8652 11.0416C11.6332 10.9377 11.3695 11.0674 11.2903 11.2998C11.2233 11.4965 11.3103 11.7032 11.4764 11.8307C11.4918 11.8426 11.508 11.8537 11.5248 11.8642C11.5402 11.8738 11.5562 11.8827 11.5726 11.891L11.5744 11.8919C11.9543 12.0808 12.2854 12.3517 12.5397 12.6854C12.8855 13.139 13.0717 13.6854 13.0717 14.2461C13.0717 14.8069 12.8855 15.3533 12.5397 15.8069ZM10.9484 15.0276C10.8673 15.134 10.7706 15.2277 10.6619 15.3061C10.6354 15.3251 10.6099 15.346 10.5859 15.3681C10.5639 15.3883 10.5431 15.4097 10.5237 15.4321C10.4008 15.5742 10.3359 15.756 10.3954 15.9308C10.4747 16.1633 10.74 16.2941 10.9632 16.1739C11.0532 16.1255 11.1396 16.0715 11.2218 16.0122C11.4031 15.8815 11.5644 15.7253 11.6996 15.5479C11.9878 15.1698 12.143 14.7145 12.143 14.2472C12.143 13.7799 11.9878 13.3246 11.6996 12.9466C11.5644 12.7692 11.403 12.613 11.2218 12.4823C11.1396 12.423 11.0532 12.3689 10.9632 12.3205C10.74 12.2003 10.4747 12.3312 10.3954 12.5636C10.3359 12.7384 10.4008 12.9202 10.5237 13.0623C10.5431 13.0847 10.5639 13.1061 10.5859 13.1264C10.6099 13.1485 10.6353 13.1692 10.6617 13.1883C10.7705 13.2667 10.8673 13.3604 10.9484 13.4668C10.97 13.4951 10.9903 13.5241 11.0093 13.5538C11.1431 13.7619 11.2144 14.0018 11.2144 14.2472C11.2144 14.5276 11.1213 14.8008 10.9484 15.0276ZM4.71408 16.4602H2.85693V19.0722C2.85693 19.585 3.27267 20.0007 3.78551 20.0007C4.29834 20.0007 4.71408 19.585 4.71408 19.0722V16.4602Z"/>
</mask>
<path fill-rule="evenodd" clip-rule="evenodd" d="M9.82143 17.6071V10.8868C9.82143 10.1264 8.88179 9.71995 8.28139 10.2207L6.10714 12.0342H2.39286C1.6236 12.0342 1 12.6286 1 13.3619V15.1321C1 15.8654 1.6236 16.4598 2.39286 16.4598H6.10714L8.28139 18.2732C8.88179 18.774 9.82143 18.3676 9.82143 17.6071ZM12.5397 15.8069C12.2971 16.1252 11.9847 16.3864 11.6266 16.5738C11.6093 16.5828 11.5919 16.5917 11.5744 16.6004L11.5726 16.6013C11.5562 16.6096 11.5402 16.6185 11.5248 16.6281C11.508 16.6385 11.4918 16.6497 11.4764 16.6616C11.3103 16.789 11.2233 16.9958 11.2903 17.1925C11.3695 17.4249 11.6332 17.5546 11.8652 17.4507C11.912 17.4297 11.9582 17.4079 12.0039 17.3852C12.5104 17.1333 12.9518 16.7721 13.2909 16.3272C13.752 15.7223 14.0003 14.9938 14.0003 14.2461C14.0003 13.4985 13.752 12.77 13.2909 12.1651C12.9518 11.7202 12.5104 11.359 12.0039 11.1071C11.9582 11.0844 11.912 11.0625 11.8652 11.0416C11.6332 10.9377 11.3695 11.0674 11.2903 11.2998C11.2233 11.4965 11.3103 11.7032 11.4764 11.8307C11.4918 11.8426 11.508 11.8537 11.5248 11.8642C11.5402 11.8738 11.5562 11.8827 11.5726 11.891L11.5744 11.8919C11.9543 12.0808 12.2854 12.3517 12.5397 12.6854C12.8855 13.139 13.0717 13.6854 13.0717 14.2461C13.0717 14.8069 12.8855 15.3533 12.5397 15.8069ZM10.9484 15.0276C10.8673 15.134 10.7706 15.2277 10.6619 15.3061C10.6354 15.3251 10.6099 15.346 10.5859 15.3681C10.5639 15.3883 10.5431 15.4097 10.5237 15.4321C10.4008 15.5742 10.3359 15.756 10.3954 15.9308C10.4747 16.1633 10.74 16.2941 10.9632 16.1739C11.0532 16.1255 11.1396 16.0715 11.2218 16.0122C11.4031 15.8815 11.5644 15.7253 11.6996 15.5479C11.9878 15.1698 12.143 14.7145 12.143 14.2472C12.143 13.7799 11.9878 13.3246 11.6996 12.9466C11.5644 12.7692 11.403 12.613 11.2218 12.4823C11.1396 12.423 11.0532 12.3689 10.9632 12.3205C10.74 12.2003 10.4747 12.3312 10.3954 12.5636C10.3359 12.7384 10.4008 12.9202 10.5237 13.0623C10.5431 13.0847 10.5639 13.1061 10.5859 13.1264C10.6099 13.1485 10.6353 13.1692 10.6617 13.1883C10.7705 13.2667 10.8673 13.3604 10.9484 13.4668C10.97 13.4951 10.9903 13.5241 11.0093 13.5538C11.1431 13.7619 11.2144 14.0018 11.2144 14.2472C11.2144 14.5276 11.1213 14.8008 10.9484 15.0276ZM4.71408 16.4602H2.85693V19.0722C2.85693 19.585 3.27267 20.0007 3.78551 20.0007C4.29834 20.0007 4.71408 19.585 4.71408 19.0722V16.4602Z" fill="#303030"/>
<path d="M8.28139 10.2207L8.9219 10.9887V10.9887L8.28139 10.2207ZM6.10714 12.0342V13.0342H6.46944L6.74766 12.8021L6.10714 12.0342ZM6.10714 16.4598L6.74766 15.6918L6.46943 15.4598H6.10714V16.4598ZM8.28139 18.2732L8.9219 17.5053L8.9219 17.5053L8.28139 18.2732ZM11.6266 16.5738L11.1629 15.6878L11.1629 15.6878L11.6266 16.5738ZM12.5397 15.8069L11.7444 15.2007L11.7444 15.2007L12.5397 15.8069ZM11.5744 16.6004L11.1292 15.705L11.1291 15.705L11.5744 16.6004ZM11.5726 16.6013L11.1274 15.7059L11.1244 15.7074L11.5726 16.6013ZM11.5248 16.6281L12.0525 17.4775L12.0525 17.4775L11.5248 16.6281ZM11.4764 16.6616L10.8675 15.8683L10.8675 15.8683L11.4764 16.6616ZM11.2903 17.1925L10.3438 17.5151L10.3438 17.5151L11.2903 17.1925ZM11.8652 17.4507L12.2739 18.3634L12.2739 18.3634L11.8652 17.4507ZM12.0039 17.3852L11.5587 16.4898L11.5587 16.4898L12.0039 17.3852ZM13.2909 16.3272L12.4956 15.721L12.4956 15.721L13.2909 16.3272ZM13.2909 12.1651L12.4956 12.7713V12.7713L13.2909 12.1651ZM12.0039 11.1071L11.5587 12.0025L11.5587 12.0025L12.0039 11.1071ZM11.8652 11.0416L12.2739 10.1289L12.2739 10.1289L11.8652 11.0416ZM11.2903 11.2998L10.3438 10.9772L10.3438 10.9772L11.2903 11.2998ZM11.4764 11.8307L12.0852 11.0374L12.0852 11.0374L11.4764 11.8307ZM11.5248 11.8642L10.997 12.7136L10.9971 12.7136L11.5248 11.8642ZM11.5726 11.891L11.1244 12.7849L11.1273 12.7863L11.5726 11.891ZM11.5744 11.8919L11.1291 12.7872L11.1292 12.7873L11.5744 11.8919ZM12.5397 12.6854L11.7444 13.2915L11.7444 13.2915L12.5397 12.6854ZM10.6619 15.3061L11.2467 16.1173L11.2468 16.1172L10.6619 15.3061ZM10.9484 15.0276L11.7437 15.6338L11.7437 15.6338L10.9484 15.0276ZM10.5859 15.3681L9.90846 14.6324L9.90845 14.6324L10.5859 15.3681ZM10.5237 15.4321L9.76723 14.7781L9.76722 14.7781L10.5237 15.4321ZM10.3954 15.9308L11.342 15.6082L11.342 15.6082L10.3954 15.9308ZM10.9632 16.1739L11.4373 17.0544L11.4373 17.0544L10.9632 16.1739ZM11.2218 16.0122L11.8066 16.8234L11.8066 16.8234L11.2218 16.0122ZM11.6996 15.5479L12.4949 16.1541L12.4949 16.1541L11.6996 15.5479ZM11.6996 12.9466L12.4949 12.3404L12.4949 12.3404L11.6996 12.9466ZM11.2218 12.4823L11.8066 11.6711L11.8066 11.6711L11.2218 12.4823ZM10.9632 12.3205L10.4892 13.201V13.201L10.9632 12.3205ZM10.3954 12.5636L11.342 12.8863L11.342 12.8863L10.3954 12.5636ZM10.5237 13.0623L9.76722 13.7164L9.76723 13.7164L10.5237 13.0623ZM10.5859 13.1264L9.90845 13.862L9.90846 13.862L10.5859 13.1264ZM10.6617 13.1883L11.2465 12.3771L11.2465 12.3771L10.6617 13.1883ZM10.9484 13.4668L10.1531 14.073L10.1531 14.073L10.9484 13.4668ZM11.0093 13.5538L10.168 14.0944L10.168 14.0944L11.0093 13.5538ZM2.85693 16.4602V15.4602H1.85693V16.4602H2.85693ZM4.71408 16.4602H5.71408V15.4602H4.71408V16.4602ZM8.82143 10.8868V17.6071H10.8214V10.8868H8.82143ZM8.9219 10.9887C8.92194 10.9886 8.92093 10.9895 8.91884 10.9908C8.91676 10.992 8.9141 10.9934 8.91095 10.9948C8.90444 10.9975 8.89812 10.999 8.89294 10.9997C8.88406 11.0007 8.88063 10.9991 8.87957 10.9986C8.87864 10.9982 8.86559 10.9926 8.84998 10.9706C8.8418 10.9591 8.83405 10.9445 8.82857 10.9276C8.82299 10.9103 8.82143 10.8958 8.82143 10.8868H10.8214C10.8214 9.18599 8.8206 8.46881 7.64088 9.45278L8.9219 10.9887ZM6.74766 12.8021L8.9219 10.9887L7.64088 9.45278L5.46663 11.2662L6.74766 12.8021ZM2.39286 13.0342H6.10714V11.0342H2.39286V13.0342ZM2 13.3619C2 13.2255 2.13019 13.0342 2.39286 13.0342V11.0342C1.11702 11.0342 0 12.0317 0 13.3619H2ZM2 15.1321V13.3619H0V15.1321H2ZM2.39286 15.4598C2.13019 15.4598 2 15.2685 2 15.1321H0C0 16.4623 1.11702 17.4598 2.39286 17.4598V15.4598ZM6.10714 15.4598H2.39286V17.4598H6.10714V15.4598ZM8.9219 17.5053L6.74766 15.6918L5.46663 17.2277L7.64088 19.0412L8.9219 17.5053ZM8.82143 17.6071C8.82143 17.5981 8.82299 17.5836 8.82857 17.5664C8.83405 17.5495 8.8418 17.5348 8.84998 17.5233C8.86559 17.5014 8.87864 17.4957 8.87957 17.4953C8.88063 17.4949 8.88406 17.4933 8.89294 17.4943C8.89812 17.4949 8.90444 17.4964 8.91095 17.4992C8.9141 17.5005 8.91676 17.5019 8.91884 17.5032C8.92093 17.5045 8.92194 17.5053 8.9219 17.5053L7.64087 19.0412C8.8206 20.0252 10.8214 19.308 10.8214 17.6071H8.82143ZM12.0903 17.4598C12.5746 17.2063 13.0014 16.8509 13.335 16.4131L11.7444 15.2007C11.5928 15.3996 11.3947 15.5665 11.1629 15.6878L12.0903 17.4598ZM12.0197 17.4958C12.0433 17.4841 12.0669 17.4721 12.0903 17.4598L11.1629 15.6878C11.1518 15.6936 11.1405 15.6994 11.1292 15.705L12.0197 17.4958ZM12.0179 17.4967L12.0197 17.4958L11.1291 15.705L11.1274 15.7059L12.0179 17.4967ZM12.0525 17.4775C12.0423 17.4839 12.0317 17.4898 12.0209 17.4952L11.1244 15.7074C11.0806 15.7293 11.0381 15.7532 10.997 15.7787L12.0525 17.4775ZM12.0852 17.4549C12.0746 17.463 12.0637 17.4706 12.0525 17.4775L10.997 15.7787C10.9523 15.8065 10.9091 15.8364 10.8675 15.8683L12.0852 17.4549ZM12.2368 16.8698C12.3389 17.1694 12.1769 17.3845 12.0852 17.4549L10.8675 15.8683C10.4437 16.1936 10.1076 16.8222 10.3438 17.5151L12.2368 16.8698ZM11.4566 16.538C11.8023 16.3832 12.1407 16.5878 12.2368 16.8698L10.3438 17.5151C10.5984 18.262 11.464 18.726 12.2739 18.3634L11.4566 16.538ZM11.5587 16.4898C11.525 16.5065 11.491 16.5226 11.4566 16.538L12.2739 18.3634C12.333 18.3369 12.3914 18.3093 12.4492 18.2806L11.5587 16.4898ZM12.4956 15.721C12.2519 16.0407 11.9316 16.3043 11.5587 16.4898L12.4492 18.2806C13.0893 17.9623 13.6517 17.5035 14.0862 16.9334L12.4956 15.721ZM13.0003 14.2461C13.0003 14.7708 12.8263 15.2871 12.4956 15.721L14.0862 16.9334C14.6776 16.1575 15.0003 15.2169 15.0003 14.2461H13.0003ZM12.4956 12.7713C12.8263 13.2052 13.0003 13.7215 13.0003 14.2461H15.0003C15.0003 13.2754 14.6776 12.3347 14.0862 11.5589L12.4956 12.7713ZM11.5587 12.0025C11.9316 12.1879 12.2519 12.4516 12.4956 12.7713L14.0862 11.5589C13.6517 10.9888 13.0893 10.53 12.4492 10.2117L11.5587 12.0025ZM11.4566 11.9543C11.491 11.9697 11.525 11.9858 11.5587 12.0025L12.4492 10.2117C12.3914 10.183 12.333 10.1554 12.2739 10.1289L11.4566 11.9543ZM12.2368 11.6225C12.1407 11.9044 11.8023 12.1091 11.4566 11.9543L12.2739 10.1289C11.464 9.76627 10.5984 10.2303 10.3438 10.9772L12.2368 11.6225ZM12.0852 11.0374C12.1769 11.1078 12.3389 11.3229 12.2368 11.6225L10.3438 10.9772C10.1076 11.6701 10.4437 12.2987 10.8675 12.624L12.0852 11.0374ZM12.0525 11.0148C12.0636 11.0217 12.0746 11.0292 12.0852 11.0374L10.8675 12.624C10.9091 12.6559 10.9523 12.6858 10.997 12.7136L12.0525 11.0148ZM12.0209 10.997C12.0317 11.0025 12.0423 11.0084 12.0525 11.0147L10.9971 12.7136C11.0381 12.7391 11.0806 12.7629 11.1244 12.7849L12.0209 10.997ZM12.0198 10.9965L12.018 10.9956L11.1273 12.7863L11.1291 12.7872L12.0198 10.9965ZM13.335 12.0792C12.9852 11.6203 12.5332 11.2518 12.0197 10.9965L11.1292 12.7873C11.3755 12.9097 11.5855 13.0831 11.7444 13.2915L13.335 12.0792ZM14.0717 14.2461C14.0717 13.4623 13.8111 12.7038 13.335 12.0792L11.7444 13.2915C11.9598 13.5743 12.0717 13.9084 12.0717 14.2461H14.0717ZM13.335 16.4131C13.8111 15.7885 14.0717 15.03 14.0717 14.2461H12.0717C12.0717 14.5838 11.9598 14.918 11.7444 15.2007L13.335 16.4131ZM11.2468 16.1172C11.4337 15.9824 11.6017 15.8201 11.7437 15.6338L10.1531 14.4214C10.1329 14.448 10.1075 14.473 10.077 14.4949L11.2468 16.1172ZM11.2633 16.1037C11.2575 16.109 11.2521 16.1133 11.2467 16.1173L10.0771 14.4948C10.0188 14.5369 9.96223 14.5829 9.90846 14.6324L11.2633 16.1037ZM11.2801 16.0862C11.2741 16.0932 11.2684 16.099 11.2633 16.1037L9.90845 14.6324C9.85935 14.6777 9.81205 14.7262 9.76723 14.7781L11.2801 16.0862ZM11.342 15.6082C11.3854 15.7357 11.3776 15.856 11.3531 15.9423C11.3306 16.0217 11.2965 16.0673 11.2801 16.0862L9.76722 14.7781C9.50307 15.0836 9.23598 15.6288 9.44892 16.2535L11.342 15.6082ZM10.4892 15.2934C10.6749 15.1934 10.8811 15.2033 11.0348 15.2723C11.1792 15.3371 11.2905 15.4572 11.342 15.6082L9.44892 16.2535C9.69517 16.9759 10.585 17.5133 11.4373 17.0544L10.4892 15.2934ZM10.6371 15.201C10.5903 15.2346 10.5409 15.2656 10.4892 15.2934L11.4373 17.0544C11.5654 16.9854 11.6888 16.9083 11.8066 16.8234L10.6371 15.201ZM10.9043 14.9417C10.83 15.0392 10.7401 15.1267 10.637 15.201L11.8066 16.8234C12.0661 16.6363 12.2988 16.4114 12.4949 16.1541L10.9043 14.9417ZM11.143 14.2472C11.143 14.4915 11.0622 14.7346 10.9043 14.9417L12.4949 16.1541C12.9134 15.6051 13.143 14.9376 13.143 14.2472H11.143ZM10.9043 13.5528C11.0622 13.7599 11.143 14.003 11.143 14.2472H13.143C13.143 13.5569 12.9134 12.8894 12.4949 12.3404L10.9043 13.5528ZM10.637 13.2935C10.74 13.3677 10.83 13.4553 10.9043 13.5528L12.4949 12.3404C12.2988 12.083 12.0661 11.8582 11.8066 11.6711L10.637 13.2935ZM10.4892 13.201C10.5409 13.2289 10.5903 13.2598 10.6371 13.2935L11.8066 11.6711C11.6888 11.5862 11.5654 11.509 11.4373 11.44L10.4892 13.201ZM11.342 12.8863C11.2905 13.0373 11.1792 13.1573 11.0348 13.2221C10.8811 13.2911 10.6749 13.301 10.4892 13.201L11.4373 11.44C10.585 10.9811 9.69517 11.5186 9.44892 12.241L11.342 12.8863ZM11.2801 12.4083C11.2965 12.4272 11.3306 12.4728 11.3531 12.5521C11.3776 12.6384 11.3854 12.7588 11.342 12.8863L9.44892 12.241C9.23598 12.8657 9.50307 13.4108 9.76722 13.7164L11.2801 12.4083ZM11.2633 12.3908C11.2684 12.3955 11.2741 12.4012 11.2801 12.4083L9.76723 13.7164C9.81205 13.7682 9.85935 13.8168 9.90845 13.862L11.2633 12.3908ZM11.2465 12.3771C11.2521 12.3811 11.2577 12.3856 11.2633 12.3908L9.90846 13.862C9.96203 13.9113 10.0184 13.9573 10.0769 13.9995L11.2465 12.3771ZM11.7437 12.8606C11.6017 12.6743 11.4335 12.5119 11.2465 12.3771L10.0769 13.9995C10.1075 14.0215 10.1328 14.0465 10.1531 14.073L11.7437 12.8606ZM11.8507 13.0133C11.8171 12.9611 11.7815 12.9102 11.7437 12.8606L10.1531 14.073C10.1585 14.0801 10.1634 14.0872 10.168 14.0944L11.8507 13.0133ZM12.2144 14.2472C12.2144 13.8069 12.0862 13.3798 11.8507 13.0132L10.168 14.0944C10.1999 14.144 10.2144 14.1968 10.2144 14.2472H12.2144ZM11.7437 15.6338C12.0469 15.236 12.2144 14.7507 12.2144 14.2472H10.2144C10.2144 14.3045 10.1957 14.3655 10.1531 14.4214L11.7437 15.6338ZM2.85693 17.4602H4.71408V15.4602H2.85693V17.4602ZM3.85693 19.0722V16.4602H1.85693V19.0722H3.85693ZM3.78551 19.0007C3.82495 19.0007 3.85693 19.0327 3.85693 19.0722H1.85693C1.85693 20.1373 2.72038 21.0007 3.78551 21.0007V19.0007ZM3.71408 19.0722C3.71408 19.0327 3.74606 19.0007 3.78551 19.0007V21.0007C4.85062 21.0007 5.71408 20.1373 5.71408 19.0722H3.71408ZM3.71408 16.4602V19.0722H5.71408V16.4602H3.71408Z" fill="white" mask="url(#path-2-outside-1_6152_7062)"/>
</svg>
