<svg width="20" height="20" viewBox="0 0 20 20" fill="none" xmlns="http://www.w3.org/2000/svg">
<path d="M15.8327 7.5C15.8327 7.96024 16.2058 8.33333 16.666 8.33333C17.1263 8.33333 17.4993 7.96024 17.4993 7.5V4.16667C17.4993 3.24619 16.7532 2.5 15.8327 2.5H12.4993C12.0391 2.5 11.666 2.8731 11.666 3.33333C11.666 3.79357 12.0391 4.16667 12.4993 4.16667L14.6542 4.16667L9.41009 9.41075C9.08466 9.73618 9.08466 10.2638 9.41009 10.5893C9.73553 10.9147 10.2632 10.9147 10.5886 10.5893L15.8327 5.34518V7.5Z" fill="#303030"/>
<path fill-rule="evenodd" clip-rule="evenodd" d="M2.5 5C2.5 3.61929 3.61929 2.5 5 2.5H9.16667C9.6269 2.5 10 2.8731 10 3.33333C10 3.79357 9.6269 4.16667 9.16667 4.16667H5C4.53976 4.16667 4.16667 4.53976 4.16667 5V15C4.16667 15.4602 4.53976 15.8333 5 15.8333H15C15.4602 15.8333 15.8333 15.4602 15.8333 15V10.8333C15.8333 10.3731 16.2064 10 16.6667 10C17.1269 10 17.5 10.3731 17.5 10.8333V15C17.5 16.3807 16.3807 17.5 15 17.5H5C3.61929 17.5 2.5 16.3807 2.5 15V5Z" fill="#303030"/>
</svg>
